<svg width="20" height="40" viewBox="0 0 20 40" xmlns="http://www.w3.org/2000/svg" xmlns:xlink="http://www.w3.org/1999/xlink"><svg width="20" height="20" viewBox="0 0 20 20"><path d="M14 20a.5.5 0 0 0 .354-.853l-8.646-8.646 8.646-8.646a.5.5 0 0 0-.707-.707l-9 9a.5.5 0 0 0 0 .707l9 9a.498.498 0 0 0 .354.146z"/></svg><svg width="20" height="20" viewBox="0 0 20 20" y="20"><path d="M5 20a.5.5 0 0 1-.354-.853l8.646-8.646-8.646-8.646a.5.5 0 0 1 .707-.707l9 9a.5.5 0 0 1 0 .707l-9 9a.498.498 0 0 1-.354.146z"/></svg></svg>