<svg width="100" height="250" viewBox="0 0 100 250" xmlns="http://www.w3.org/2000/svg" xmlns:xlink="http://www.w3.org/1999/xlink"><svg viewBox="0 0 100 125" width="100" height="125"><path d="M69.203 47.046l-32.75-32.75a4 4 0 0 0-5.657 5.657l29.932 29.932-29.942 30.173a4 4 0 1 0 5.678 5.634l32.75-33a3.998 3.998 0 0 0-.011-5.646z"/></svg><svg viewBox="0 0 100 125" width="100" height="125" y="125"><path d="M39.271 49.886l29.932-29.932a4 4 0 1 0-5.656-5.657l-32.75 32.75a4 4 0 0 0-.011 5.646l32.75 33a3.987 3.987 0 0 0 2.839 1.183 3.998 3.998 0 0 0 2.838-6.817L39.271 49.886z"/></svg></svg>