<svg xmlns="http://www.w3.org/2000/svg" viewBox="0 0 487 365"><g fill="#7d7d7d" stroke="#7d7d7d" stroke-width=".09375"><path d="M197.83 8.36c.53-1.42 1.08-2.85 1.66-4.26.26 1.37.53 2.74.8 4.11 1.5.49 3 .99 4.49 1.52-1.51.27-3.01.52-4.52.76-.24 1.51-.49 3.02-.76 4.53-.51-1.41-.98-2.84-1.45-4.27-1.48-.39-2.96-.78-4.43-1.19 1.4-.41 2.8-.8 4.21-1.2zm-24.91 13.51c.13-5.54-.46-11.17.82-16.62 1.05 5.39.22 10.89.72 16.31 2.55.48 5.16.56 7.74.78.33 3.94-.56 8.23.49 11.97 3.31 1.22 7.28.38 10.8 1.19-3.51 1.5-7.38.85-11.05 1.45-1.18 3.23 3.76 1.81 5.59 2.53.04.31.11.93.14 1.24-2.06.2-4.14.36-6.18.75l.92 1.76c5.28 1.02 10.91-.86 16.02 1.3-5.18 1.06-10.48.25-15.69.85-.71 1.38-1.19 2.87-1.84 4.28-2.32.54-4.7.58-7.06.79.03 3.99.22 8.06-.89 11.94-.6-4-.52-8.05-.63-12.08-.64-.01-1.91-.05-2.55-.06-.11 2.99-.23 5.99-.67 8.95-1.28-3.34.06-8.03-3.64-10.05-.8 5.93-.01 11.93-.88 17.85-2.05-5.29-.82-11.09-1.23-16.61-2.49-.22-4.99-.39-7.48-.62.03-4.33.06-8.66-.06-12.98-3.81-.09-7.74.23-11.31-1.27 4.04-.66 8.16-.49 12.22-1.05-1.99-2.28-5.04-2.54-7.78-3.3 2.41-.35 4.85-.55 7.25-1.07-.21-.44-.62-1.32-.83-1.76-5.33-.65-10.76.31-16.07-.72 5.23-2.1 10.99-.77 16.47-1.29.1-1.37.21-2.75.32-4.13 2.43-.13 4.87-.27 7.31-.41 0-4.04-.05-8.1.63-12.1 1.45 3.96 1.02 8.24 1.13 12.37.71-.09 2.12-.27 2.83-.36.09-2.89.18-5.79.73-8.64.78 2.89.92 5.88 1.1 8.85.65-.01 1.96-.03 2.61-.04m-14.35 2.68c-.79 3.07-.32 6.3-.39 9.44.16 4.6-.31 9.22.22 13.8.21.21.64.63.85.84 6.88.44 13.81-.29 20.72.01 1.03-3.78.48-7.75.59-11.62-.15-4.32.35-8.71-.49-12.98-7.07-.47-14.22-.49-21.3-.06l-.2.57zm79.62-18.46c.88-1.31 3.3.08 2.22 1.44-.89 1.29-3.28-.08-2.22-1.44zm6.21.03c.93-1.52 3.54.03 2.39 1.53-.94 1.55-3.53-.04-2.39-1.53zm6.82-.08c.95-1.27 3.24.27 2.1 1.57-.96 1.29-3.25-.28-2.1-1.57zm34.19 12.76c1.98-2.03 4.27-5.25 7.54-3.64 3.75 1.51 3.6 7.29-.19 8.68-3.91 1.81-5.79-4.23-9.66-3.66-8.01-.22-16.02.13-24.03-.05-3.16.08-6.39-.27-9.5.42-.94 5.78-.11 11.7-.42 17.53-12.16.18-24.32-.01-36.48.1-.33 5.63-.34 11.27-.25 16.9-.31 2.66 2.15 4.22 3.34 6.28 1.6 1.66-.14 3.67-.59 5.43-1.26.5-2.51 1.01-3.75 1.53-1.56-1.26-4.03-2.16-4.23-4.44-.55-2.76 2.04-4.48 3.66-6.25.12-7.04.04-14.08.05-21.12 12.18-.05 24.36.13 36.54-.23.06-5.79-.01-11.57.02-17.36 12.64-.3 25.3-.02 37.95-.12m2.6.94c.93 1.18 2.01 2.22 3.07 3.3.83-1.39 3.63-2.49 2.5-4.42-.8-1.07-1.65-2.08-2.56-3.05-1.07 1.34-2.27 2.6-3.01 4.17m-80.03 43.28c1.53 1.47 3.12 3.85 5.53 2.5 2.02-1.98.62-4.47-1.5-5.62-1.47.86-2.73 2.03-4.03 3.12zM331.53 16.4c4.45-.8 8.98-.64 13.48-.42-.32.36-.95 1.09-1.26 1.46-4.09-.03-8.3.35-12.22-1.04z"/><path d="M257.86 22.43c6.38-.88 12.94-.99 19.28.2-4.15 1.76-8.75 1.16-13.14 1.23-2.15.09-4.25-.41-6.14-1.43zm-97.76 4.34c3.83-.64 7.75-.65 11.58.01-3.77 1.07-7.86 1.4-11.58-.01zm-66.77 2.89c4.61-1.19 9.45-1.18 14.11-.3-4.59 1.24-9.45 1.13-14.11.3zm66.7.74c2.68-.36 5.39-.45 8.08-.17-2.55 1.45-5.47 1.47-8.08.17zm58.89 3.18c4.91-1.63 10.36-1.54 15.28.01-5.05.85-10.24.87-15.28-.01zm99.2-.28c13.58-.12 27.16-.13 40.73.01.39 10.25.32 20.52 0 30.77-5.54.03-11.08-.16-16.61.34.19 2.09.28 4.22.76 6.28 4.29.65 8.85-.23 12.94 1.54-5.94 1.01-11.98.4-17.96.53-5.62-.11-11.34.58-16.87-.77 4.23-1.4 8.72-.73 13.07-1.22.77-2 .65-4.21.32-6.28-5.41-.87-10.92-.25-16.38-.42-.05-10.26.02-20.52 0-30.78m1.85 1.54c-.11 7.03-.03 14.07-.12 21.1.06 2.1-.13 4.32.76 6.29 7.11.69 14.29.11 21.43.24 4.99-.12 10.06.54 14.99-.48.66-9.04.12-18.14.14-27.2-12.4-.06-24.8-.17-37.2.05m16.42 29.57c-.01 2.24.01 4.48.07 6.72 1.29-.36 2.62-.52 3.93-.77.29-1.96.28-3.95.35-5.92-1.45-.02-2.9-.03-4.35-.03z"/><path d="M337.72 37.26c1.59-.57 2.17-.04 1.72 1.61-1.61.58-2.18.04-1.72-1.61zm39.64 2.82c1.01-1.5 3.5.21 2.33 1.66-1 1.52-3.47-.23-2.33-1.66zm6.65-.01c1.62-.58 2.2-.06 1.75 1.57-1.63.58-2.21.06-1.75-1.57zm6.35-.01c1.03-1.51 3.45.29 2.27 1.71-1.03 1.54-3.43-.31-2.27-1.71zm-182.94-.29c1.15 4.23 1.1 8.71.29 12.99-1.24-4.21-1.22-8.72-.29-12.99zm224.07 4.84c.38-1.39.78-2.78 1.2-4.15.44 1.39.9 2.79 1.35 4.19.98.21 2.93.63 3.91.84-1.2.71-2.43 1.37-3.65 2.03-.73 1.21-1.49 2.41-2.25 3.6-.1-.9-.3-2.71-.4-3.61-1.47-.59-2.94-1.18-4.38-1.81 1.39-.39 2.8-.75 4.22-1.09zM36.5 43.41c5.31-2.87 11.65-1.05 17.42-1.39-.02.45-.05 1.37-.07 1.82-5.78-.05-11.6.37-17.35-.43zm22.35-1.03c3.11-.46 6.26-.41 9.38-.09-2.61 2.61-6.52 1.8-9.38.09zm237.87 5.6c2.33-1.72 4.37-3.83 6.81-5.43-1.53 3.29-4.22 5.76-6.82 8.19-2.8-2.27-5.45-4.78-7.4-7.85 2.61 1.49 4.84 3.55 7.41 5.09zm-128.48-2.87c3.01-1.54.14 3.33 0 0zm3.91.03c3-1.52.11 3.34 0 0zm4.62.62c-.56-.53-.56-.53 0 0zm55.24 3.46c2.35-1.63 5.33-1.19 8.02-1.31 3.6.08 7.24-.22 10.81.35 2.28.5 1.92 3.51 2.79 5.18 3.7.19 7.47-.21 11.1.65 2.37 1.42 1.56 4.57 1.8 6.87-.23 5.61.51 11.31-.54 16.85-5.11 2.49-11.17.55-16.65 1.49 1.06 1.92 2.3 3.74 3.57 5.52 5.46-.15 10.93-.1 16.39-.11l.03 1.53c-5.22 0-10.44-.03-15.65.06-1.46 1.05-2.98 2.02-4.62 2.74-1.5-.82-2.95-1.72-4.29-2.78-5.32-.03-10.63.01-15.95-.08v-1.47c4.74-.05 9.48.15 14.21.01 2.89.22 5.78-2.58 5.28-5.5-4.91-.7-9.98.46-14.81-.71-2.8-1.85-1.77-5.68-2-8.5.33-6.92-.58-13.93.51-20.79m1.42.99c-.07 6.92-.04 13.85-.09 20.77.06 2.01-.18 4.16.83 6 6.23.82 12.56.16 18.83.39 3.83-.17 7.84.57 11.53-.72.82-6.79.61-13.75.11-20.56-6.13-1.64-12.76.79-18.73-1.69 1.65-.38 3.31-.72 4.98-1.04.03-1.14.05-2.28.07-3.42-5.84-.14-11.7-.18-17.53.27m14.52 33.88c-1.54 2.41.9 2.91 2.82 2.74.52-2.17-.72-3.05-2.82-2.74z"/><path d="M289.26 49.6c2.48 1.61 4.61 3.68 7.01 5.42 2.59-1.55 4.82-3.62 7.39-5.23-1.63 2.65-3.6 5.17-6.13 7.01-1.12 1.11-2.46-.24-3.32-.94-2.04-1.74-3.64-3.94-4.95-6.26zM55.77 52.63c13.67-.01 27.35-.32 41.02.07.03 22.19.11 44.38.02 66.58-13.68.21-27.37.13-41.06.05-.09-22.23-.15-44.47.02-66.7m1.44 1.96c.07 3.7.15 7.4.47 11.09 12.42-.29 24.84.01 37.26-.13.24-3.72.25-7.45.16-11.17-12.63.14-25.29-.67-37.89.21m.01 12.68c-.02 3.82.01 7.64.08 11.47 12.63.34 25.25-.33 37.87.08.08-3.86.11-7.73.05-11.59-12.67.01-25.34-.25-38 .04m.43 12.99c-.24 3.68-.56 7.42 0 11.09 4.76.68 9.6.21 14.39.32 7.56-.13 15.14.26 22.68-.19.81-3.7.42-7.51.18-11.25-12.42-.15-24.83.06-37.25.03m.01 13.29c-.56 3.38-.59 6.87-.14 10.28 1.76 1.5 4.37.7 6.5.95 10.4-.32 20.82.45 31.21-.27 0-3.74-.06-7.49-.3-11.23-12.42-.06-24.86-.17-37.27.27m.06 13.08c-.74 3.51-.43 7.14-.43 10.7 5.89.64 11.82.35 17.73.37 6.74-.07 13.5.4 20.23-.24-.01-3.68-.05-7.37-.27-11.04-12.42-.11-24.86-.16-37.26.21zm329.77-51.7c8.86.12 17.72-.11 26.58.07 1.31.19 4.02-.08 3.87 1.93.19 11.11-.22 22.24.12 33.35-10.11.31-20.32.87-30.4-.03-1.04-3.3-.63-6.82-.65-10.22.31-8.36-.57-16.77.48-25.1m1.47 2.12c-.15 10.56-.29 21.12 0 31.68 8.98.12 17.97-.01 26.95 0 .22-10.63.27-21.28-.04-31.9-8.97.23-17.94.18-26.91.22z"/><path d="M59.61 58.09c3.03-2.45 7.08-1.8 10.48-.62-3.43.88-6.98 1.11-10.48.62zm47.69.12c3.33-2.04 6.03 1.51 8.25 3.53 12.89 0 25.78-.11 38.67.07.05 13.21-.39 26.46.26 39.65 11.46.62 22.99.19 34.47.18 1.54-1.45 2.83-3.64 5.08-3.99 2.77-.23 4.15 2.62 5.7 4.39-1.24 1.84-2.08 4.68-4.62 5.04-2.83.68-4.45-2.05-6.15-3.73-11.95-.54-23.96.39-35.89-.43-.83-13.21-.03-26.49-.39-39.73-10.9-.25-21.8-.1-32.7-.17-2.14.08-4.68-.28-6.23 1.55-1.66 1.12-3.32 3.75-5.54 2.29-3.76-1.17-4.55-6.82-.91-8.65m.97 1.84c-2.26 1.26-1.6 3.27.01 4.79 1.59.12 3.85.27 3.93-1.9 1.17-2.09-2.55-4.48-3.94-2.89m84.16 40.52c-.62.66-1.07 1.43-1.34 2.31 1.25 1.24 2.84 3.72 4.66 1.88 3.78-1.75-.86-7.36-3.32-4.19zm130.64-41.13c4.46-1.79 9.8-2.08 14.2.03-4.7.74-9.51.71-14.2-.03zm16.22-1.14c.94-1.51 3.56.04 2.41 1.54-.96 1.45-3.61-.03-2.41-1.54zm4.63 1.29c2.99-2.15 6.98-1.85 10.08-.08-3.34.54-6.74.53-10.08.08zm-283.82.1c2.36.11 4.72.25 7.07.5-1.89.62-3.8 1.13-5.73 1.57-.33-.51-1.01-1.55-1.34-2.07zm330.92 1.99c3.7-1.89 7.95-1.32 11.95-1.28 3.68.19 7.4.02 11.05.69-2.24.85-4.61 1.31-7 1.21-5.34-.11-10.71.25-16-.62zm-307.46.25c1.42-.42 1.9.06 1.44 1.44-1.42.42-1.9-.06-1.44-1.44zm2.38.02c2.37.14 4.75.29 7.13.49-1.89.52-3.82.84-5.75 1.17-.35-.42-1.04-1.24-1.38-1.66z"/><path d="M123.82 66.75c5.6-1.53 11.63-1.29 17.27-.05-5.7.9-11.56.87-17.27.05zm267.21-.35c4.1-1.82 8.67-1.05 13.02-1.07-.02.43-.07 1.29-.1 1.72-4.31-.14-8.65.06-12.92-.65zM60.04 69.91c3.31-.7 6.79-.57 10.01.5-3.25.36-7.3 2.25-10.01-.5zm97.28-.7c.38-.02 1.13-.08 1.51-.1-.07 4.98.26 10-.49 14.95-1.69-4.76-.74-9.91-1.02-14.85zm233.79 1.22c2.8-.29 5.62-.24 8.42.17-2.75.98-5.72.9-8.42-.17zm9.67.5c4.24-1.35 8.85-1.41 13.09-.05-4.31.82-8.77.82-13.09.05zM59.83 73.96c2.26-1.04 4.74-1.05 7.14-.58-2.32.67-4.75.82-7.14.58zm385.11-.49c5.69-.81 11.52-.82 17.21 0-5.61 1.35-11.6 1.36-17.21 0zm-53.95 2.07c3.9-1.03 7.96-.81 11.95-.83 3.69.04 7.45-.12 11.05.88-7.62.83-15.39.85-23-.05zm-307.37-.51c1.4-.41 1.87.08 1.41 1.48-1.41.41-1.88-.08-1.41-1.48zm3.4.02c1.42-.44 1.9.03 1.43 1.42-1.42.45-1.9-.03-1.43-1.42zm3.28.15c2.97-1.61.22 3.32 0 0zm91.66 1.48c5.71-.78 11.54-.74 17.26-.01-5.46 1.82-11.84 2.01-17.26.01zM438.1 79.4c4.44-1.71 9.26-.83 13.89-.94.24.35.7 1.03.93 1.37-4.94.07-9.92.3-14.82-.43zm-47.07.18c4.29-.78 8.71-.8 13.02-.12-3.73 2.65-9.12 2.2-13.02.12zm15.76-.79c2.02.15 4.06.23 6.06.55-.08 2.77-4.19 1.23-6.03 1.92-.01-.61-.02-1.85-.03-2.47zm-276.98 7.09c1.47-2.44 3.72-4.18 6.17-5.56 1.83 1.54 4.79 2.8 4.58 5.65-.32 2.41-1.9 4.37-3.19 6.34-2.66 3.72-5.25 7.48-7.79 11.28-1.76 2.59-4.23 5.29-7.61 5.34-3.24-.25-6.11-2.76-6.92-5.88-.64-2.78 1.12-5.24 2.5-7.47 2.8-4.05 5.35-8.35 9.01-11.7-1.85 5.51-6.09 9.67-8.89 14.65-1.54 2.56-1.07 6.49 1.85 7.83 2.6 2.02 5.74-.2 7.43-2.34 3.6-4.52 6.5-9.54 9.88-14.22.92-1.66 3.02-3.89 1.22-5.69-1.55-2.45-4.56-.5-5.62 1.39-3.66 5.41-7.89 10.51-10.77 16.4.34.35 1.02 1.05 1.35 1.4 4.06-3.79 6.11-9.19 9.98-13.11l.89-.14.64.78c-3.42 5.18-6.59 10.71-11.29 14.88-1.29-1.25-2.58-2.5-3.85-3.77 2.95-5.68 6.95-10.71 10.43-16.06zm45.14-3.31c5.19-1.34 10.71-1.2 15.93-.09-5.26.86-10.66.89-15.93.09zM59.61 83.8c3.03-2.35 7.36-2.17 10.5-.15-3.47.55-7.01.68-10.5.15zm232.57-1.87c.92-1.23 3.33.16 2.21 1.5-.93 1.25-3.3-.16-2.21-1.5zm6.33.11c.83-1.09 3 .11 1.98 1.33-.82 1.1-2.98-.14-1.98-1.33zm6.65-.1c.91-1.26 3.3.15 2.22 1.5-.92 1.28-3.27-.17-2.22-1.5zm34.28 2.43c1.44-3.4 6.85-3.49 8.41-.13 2.25 3.16-1.96 5.56-3.19 8.17-.66 3.5-.2 7.09-.06 10.62 8.98.28 18.02-.56 26.96.39.73 5.03.1 10.12.38 15.18 9.72-.01 19.45.04 29.17-.03 3.48.26 5.17-5.24 8.8-3.59 4.35 1.35 3.86 8.88-.91 9.06-3.35.62-4.68-3.85-7.85-3.88-10.22-.22-20.44.06-30.66-.05-.15-4.78.38-9.6-.24-14.36-1.06-1.11-2.88-.7-4.26-.92-7.72-.12-15.45.03-23.16-.24-.1-4.13.4-8.31-.28-12.4-1.26-2.51-4.95-4.68-3.11-7.82m2.82-.32c-2.35 1.35-1.21 5.53 1.68 4.88 2.19.27 2.85-2.22 2.42-3.92-1.06-.72-3.03-2.5-4.1-.96m64.11 33.47c-1.83 1.85.59 4.01 1.51 5.62 1.47-1.4 2.91-2.84 4.31-4.31-1.86-.65-3.94-3.24-5.82-1.31zM59.15 86.4c2.71-.38 5.46-.42 8.18-.15-2.6 1.24-5.53 1.22-8.18.15zm99.38 6.65c-1.53-2.42-1.18-5.23-.06-7.72.27 2.56.33 5.15.06 7.72zM16.82 91.63c.63-1.46 1.26-2.9 1.92-4.34.27 1.37.53 2.75.78 4.14 1.49.41 2.98.83 4.46 1.27-1.48.64-2.97 1.24-4.47 1.83-.16.92-.48 2.74-.64 3.66-.7-1.19-1.4-2.37-2.09-3.56-1.22-.76-2.43-1.54-3.69-2.24.93-.19 2.8-.57 3.73-.76zm66.66-3.61c1.4-.47 1.89 0 1.48 1.41-1.4.47-1.89 0-1.48-1.41zm3.04.02c.93-1.38 3.16.24 2.09 1.54-.93 1.4-3.15-.25-2.09-1.54zm3.51-.14c1.65-.52 2.21.03 1.68 1.63-1.65.51-2.21-.04-1.68-1.63zm117.2 1.05c2.48 1.49 4.57 3.54 6.99 5.12 2.43-1.56 4.49-3.62 6.96-5.12-1.72 3.21-4.36 5.74-7.05 8.13-2.55-2.48-5.11-5.02-6.9-8.13zM59.42 96.61c3.36-1.59 7.37-1.96 10.68-.01-3.54.59-7.15.58-10.68.01zm197.33 2.12c4.39-.03 8.88-.34 13.18.77-4.35.74-8.76.61-13.15.59l-.03-1.36zm-197.2.5c2.53-.17 5.07-.2 7.61-.02-2.44 1.46-5.23 1.88-7.61.02zm23.81 1.66c1.61-.55 2.18-.01 1.7 1.62-1.62.54-2.19 0-1.7-1.62zm3.55.17c1.41-.44 1.89.04 1.43 1.44-1.42.44-1.89-.04-1.43-1.44zm3.4-.19c1.64-.49 2.18.06 1.64 1.67-1.64.49-2.19-.07-1.64-1.67zm353.55 5.7c4.61-1.31 9.6-1.27 14.21 0-4.7.72-9.51.74-14.21 0zm-277.27 1c5.12-1.99 11.26-1.93 16.4 0-5.42.85-10.98.85-16.4 0z"/><path d="M346.44 108.78c5.18-1.65 10.86-1.57 16.07-.09-5.27 1.08-10.79 1.17-16.07.09zm-286.84.97c3.2-1.91 7.15-1.81 10.41-.13-3.44.56-6.95.62-10.41.13zm315.98 6.87c-1.03-2.83-1.34-5.95.15-8.69.3 2.89.24 5.81-.15 8.69zm-87.97-6.09c6.24-.85 12.61-.83 18.86-.02-6.05 1.7-12.84 1.86-18.86.02zm22.27-.17c3.28-.47 6.62-.41 9.91.09-3.14 1.42-6.89 1.88-9.91-.09zm-250.02 1.39c2.43-.03 4.86.03 7.28.23-2.04 2.05-5.82 3.14-7.28-.23zm360.8 1.38c13.5-.03 27-.11 40.5.03.19 9.6.14 19.21.03 28.81 1.19.48 2.39.96 3.6 1.43-.25 2.42.49 5.19-.9 7.34-15.36.53-30.79.13-46.17.17-.14-2.32-.22-4.65-.26-6.97 1.29-1.02 3.35-1.83 3.02-3.87.27-8.98-.16-17.97.18-26.94m2.02 1.68c-.19 9.17-.5 18.38.07 27.54 5.7.82 11.49.21 17.24.36 6.47-.2 12.99.46 19.43-.3.74-9.09.22-18.26.21-27.38-12.31-.44-24.63-.02-36.95-.22m-2.46 29.5c-1.4.73-1.18 2.44-1.34 3.75 3.84 1.47 8.07.65 12.09.82 10.56-.25 21.18.46 31.72-.32.12-1.39.15-2.79 0-4.17-5.88-.68-11.82-.13-17.73-.29-8.24.16-16.52-.33-24.74.21zM83.49 114.08c1.37-.55 1.88-.11 1.52 1.32-1.38.54-1.88.1-1.52-1.32zm3.41 0c1.41-.44 1.89.04 1.42 1.44-1.41.43-1.89-.05-1.42-1.44zm3.54-.1c1.41-.4 1.88.09 1.38 1.48-1.42.39-1.88-.1-1.38-1.48z"/><path d="M440.23 117.22c2.86-1.76.41 3.32 0 0zm-318.65 4.59c.63-1.27 1.25-2.55 1.9-3.81.23.9.69 2.68.93 3.57 1.44.65 2.87 1.32 4.3 2-1.44.25-2.89.5-4.34.75-.27 1.52-.54 3.05-.82 4.57-.64-1.55-1.23-3.12-1.81-4.69-.99-.18-2.98-.54-3.98-.72 1.26-.58 2.53-1.13 3.82-1.67zm58.12-3.11c30.74-.37 61.5-.05 92.24-.16 11.79.08 23.57-.17 35.35.12.48 5.96-.88 12.16.78 17.95 15-.05 30.02-.44 45.02.14-.24 17.76.58 35.55-.53 53.28.92 15.26.5 30.57.4 45.85-13.65.4-27.32.11-40.98.15-1.47.1-3.06-.09-4.4.62-.63 5.67-.1 11.4-.19 17.09-2.45.28-4.91.49-7.38.5-35.34-.03-70.68 0-106.03-.02-4.66-.06-9.36.34-13.98-.37-.97-5.72.11-11.57-.6-17.31-1.45-.37-2.96-.48-4.44-.51-12.34.02-24.67.09-37 .03-1.48-.29-4.38.39-4.29-1.96-.57-20.68.57-41.38-.12-62.07.17-11.65-.44-23.34.28-34.96 5.29-1.18 10.77-.39 16.15-.59 9.72-.17 19.47.36 29.18-.21.98-5.8.2-11.72.54-17.57m3.5 2.77c-.77 3.45-.43 7.03-.47 10.54.1 10.24-.15 20.49.13 30.74 40.32.13 80.64.1 120.95-.01.7-13.75.14-27.53.34-41.29-38.05-.51-76.11-.02-114.16-.25-2.26.01-4.54-.06-6.79.27m-47.09 17.67c-.45 9.88-.23 19.78.05 29.66 7.95.16 15.9.05 23.84.08 6.5-.06 13.04.38 19.51-.59.51-7.43-.09-14.89.18-22.34-.13-2.2.38-4.63-.76-6.64-14.25-.55-28.55-.16-42.82-.17m171.53-.09c-.57 6.29-.18 12.61-.35 18.92.02 3.52-.6 7.34 1.31 10.52 4.4.86 8.93.28 13.39.41 9.54-.25 19.12.44 28.63-.3.71-9.78.22-19.63.2-29.44-14.39-.25-28.78-.04-43.18-.11m-124.91 26.6c-.11 13.83-.17 27.67-.08 41.5 4.43.13 8.86.22 13.29-.07 6.97-.75 13.98.1 20.97-.21 5.35-.31 10.69.62 16.04.14 5-.53 9.99.5 14.98.06 7.02-.77 14.05.47 21.09.11 11.66-.46 23.37.71 35-.37 1.05-9.34.34-18.86-.13-28.24.34-4.35.92-8.76.12-13.09-32.33.15-64.67.08-97.01.05-8.09-.68-16.17.12-24.27.12m-46.68 5.53c-1.01 9.82.25 19.71-.42 29.56 9.41 1.38 18.94.36 28.4.64 4.99-.03 10.06.55 14.98-.57.74-4.57.11-9.22.25-13.82-.17-4.95.6-9.88.28-14.82-3.64-1.39-7.66-1.05-11.48-1.11-10.67.14-21.34-.09-32.01.12m171.5-.04c.08 9.99-.51 20.03.26 30 6.39.68 12.83-.15 19.25.1 7.75-.22 15.58.73 23.28-.48.37-9.58 1.03-19.19.38-28.77-1.01-.9-2.45-.6-3.67-.71-13.17.04-26.34.12-39.5-.14m.09 32.68c-1.71 9.72-.42 19.65-.8 29.46 9.71.57 19.44.11 29.16.26 4.82-.1 9.67.31 14.48-.23.94-9.66.29-19.45.36-29.16-6.46-1.75-13.2-.97-19.8-1.04-7.8.21-15.66-.62-23.4.71m-172.08.46c-.16 4.59.7 9.16.49 13.76-.21 5.15-.26 10.31.06 15.45 11.96.18 23.92-.07 35.89.12 2.39-.02 4.83.19 7.18-.37 1.25-9.63.43-19.46.06-29.14-7.99-1.32-16.1-.21-24.14-.59-6.5.22-13.15-.69-19.54.77m118.35 5.87c-6.32-.07-12.69-1.01-18.99.11-8.01 1.23-15.96-1.29-23.97-.38-7.28 1.18-14.57-.65-21.88-.25-2.08.52-4.2.85-6.29 1.26-.1 13.41-.05 26.81.02 40.22 37.08.23 74.16-.02 111.24.12 3.25-.03 6.53.16 9.76-.41.65-4.24.28-8.55.35-12.82-.16-9.35.3-18.71-.31-28.05-4.97-.04-9.95-.53-14.9-.01-11.67 1.26-23.36-1.17-35.03.21z"/><path d="M191.86 129.22c8.64-.62 17.32-.06 25.97-.26.54.63 1.61 1.88 2.14 2.51-5.19 1.5-10.62.88-15.94.96-4.08-.05-8.18.23-12.24-.26.02-.74.05-2.21.07-2.95zm63.35 2.26c.5-3.65 4.46-2.2 6.45-.7-2.02 1.2-4.3 2.4-6.45.7zm10.02-2.28c1.57-.94 3.04.5 4.39 1.14-1.13 2.12-3.48 2.57-5.56 1.66-.42-1.33-.03-2.27 1.17-2.8zm19.14.12c5.38-2.33 12.07 2.76 11.08 8.6-.01 6.11-7.88 9.99-12.75 6.35-5.61-3.43-4.67-12.9 1.67-14.95m-2.17 8.59c.33 2.56 3.16 3.62 4.86 5.18 1.88-1.4 4.71-2.39 5.21-4.98.49-2.45-1.48-4.26-2.78-6.04-.21 2.12-.34 4.26-.43 6.39-1.2-.01-2.4-.02-3.59-.05-.09-2.16-.18-4.32-.34-6.47-1.24 1.79-3.42 3.52-2.93 5.97zM30.08 135.2c5.3.4 11.11-1.25 16 1.39-5.31.81-10.69.49-16.04.52.01-.48.03-1.44.04-1.91zm161.59 1.74c14.37.2 28.78-.54 43.12.43-.99 1.19-1.89 2.85-3.74 2.5-13.08.13-26.16-.02-39.25.05-.03-.75-.09-2.23-.13-2.98zm235.28 1.14c4.3-.34 9.09-1.12 13.01 1.15-4.33.73-8.75.79-13.11.37.03-.38.08-1.14.1-1.52zm19.1 1.19c3.03-1.8 7.37-2.48 10.13.17-3.37.41-6.79.4-10.13-.17zm-384.41-2.1c2.65 1.52 4.89 3.6 7.08 5.7 2.12-2.18 4.33-4.31 6.94-5.91-1.64 3.3-4.36 5.82-6.93 8.37-2.6-2.5-5.2-5.05-7.09-8.16zm379.98.84c1-1.44 3.57.17 2.4 1.63-1.01 1.45-3.56-.17-2.4-1.63zm-419.79 3.78c4.4-1.75 9.21-1.04 13.83-1.19.33.4 1 1.2 1.34 1.6-5.06.17-10.16.44-15.17-.41zm70.75 1.25c.95-1.26 3.3.2 2.15 1.53-.94 1.29-3.26-.23-2.15-1.53zm6.8.1c.79-1.12 2.99.02 2.02 1.26-.77 1.18-2.95-.03-2.02-1.26zm6.09-.09c.91-1.23 3.34.08 2.25 1.46-.9 1.26-3.31-.11-2.25-1.46zm211.03 1.76c.87.18 3.45-.97 2.47 1.02.43 2.14-2.2.8-3.26.82-1.11-1.35-.84-1.96.79-1.84zm4.61 2.49c.8-1.78 1.91-3.52 4.01-2.43.63 2.56-2.58 1.8-4.01 2.43zm17.14-3.02c3.49-.12 6.94 3.11 6.4 6.72.05 3.42-3.5 4.8-5.87 6.45-2.77-1.47-6.11-3.1-6.55-6.6.08-3.17 2.71-6.41 6.02-6.57m-3.5 6.75c1.16 1.63 2.76 2.83 4.28 4.09.79-.88 1.55-1.8 2.27-2.74 1.44-1.42.06-3.36.06-5.05-1.01 1.78-2.07 3.53-3.07 5.31-.56-1.81-1.21-3.59-1.8-5.39-.52 1.29-1.27 2.47-1.74 3.78z"/><path d="M61.7 144.24c2.64 1.52 4.89 3.6 7.09 5.68 2.09-2.2 4.26-4.36 6.91-5.88-1.73 3.28-4.46 5.8-7.1 8.33-2.54-2.49-5.08-5.04-6.9-8.13zm79.35.89c7.6-.79 15.35-.88 22.93.12-3.49 2.53-7.96 1.49-11.97 1.71-3.68-.23-7.9.83-10.96-1.83zm50.67-.37c6.03-.5 12.13-.41 18.15.23-1.16.91-2.09 2.55-3.79 2.45-4.8.25-9.67.37-14.44-.29.02-.6.06-1.79.08-2.39zm-50.74 7.19c3.14-2.55 7.3-1.7 11.03-1.81 7.34.2 14.71-.36 22.03.35-1.2.98-2.14 2.43-3.94 2.04-9.7-.15-19.47.62-29.12-.58zm50.33.7c2.11-.9 4.43-.9 6.69-.88 8.72.08 17.45.1 26.17-.01.42.36 1.26 1.08 1.69 1.44-.25.47-.74 1.43-.99 1.9-10.93-.16-21.9.35-32.81-.21-.19-.56-.57-1.68-.75-2.24zm70.55.6c1.93-.65 3.89-1.22 5.88-1.68.01 1 .04 2.98.06 3.98-2.05-.58-4.07-1.29-5.94-2.3zm10.48-1.91c2.48.36 4.88 1.15 5.45 3.94-1.57-.1-3.11-.27-4.65-.51-.42-1.1-.56-2.3-.8-3.43zm7.79 2.43c1.23-.66 2.39-1.48 3.72-1.95 1.34.42 2.65.91 3.94 1.47-2.32 1.88-5.1 2.01-7.66.48zm11.13-2.14c1.57.32 3.14.67 4.71 1.05-.29.62-.85 1.87-1.13 2.49-1.32-.07-2.63-.13-3.94-.2.09-.84.27-2.51.36-3.34zm-262.05 9.54c2.87-4.32 7.2-8.43 12.74-8.3 4.55-.42 8.66 2.21 11.45 5.59 2.74 3.57 8.36 3.48 10.33 7.85 4.08 6.03-1.6 14.99-8.64 14.71-11.03.21-22.07-.04-33.1.1-2.74-.15-6.07.26-8.11-2-1.83-2.03-3.14-5.14-1.65-7.74.96-3.06 4.3-3.9 6.91-5.04 2.54-3.06 6.09-4.92 10.07-5.17m1.05 1.97c-3.95-.35-7.44 1.55-9.85 4.57-2.72 1.03-6.29 2.03-6.93 5.34-.82 3.7 2.97 6.72 6.44 6.53 11.69-.38 23.39.02 35.08-.23 5.17.02 9.38-5.35 7.92-10.38-.92-4.37-5.55-6.01-9.32-7.16-2.6-3.92-6.45-7.72-11.56-7.32-5.48-.13-9.18 4.41-11.78 8.65zm351.06-9.24c2.65 1.42 4.93 3.42 7.11 5.46 2.31-1.9 4.58-3.88 7.24-5.29-1.95 2.97-4.33 5.77-7.46 7.54-2.78-2.08-5.1-4.74-6.89-7.71zm-240.31 2.63c4.96-.93 10.05-.89 15.04-.19-1.26.75-2.45 1.83-4.04 1.7-3.69.14-7.73.6-11-1.51zm309.66 3.89c5.78-.83 11.63-.44 17.45-.53-.02.5-.05 1.48-.07 1.97-5.77-.35-12.02 1.31-17.38-1.44zm22.42 1.03c2.59-2.07 5.99-1.51 9.05-1.46-2.12 3.07-6.02 1.67-9.05 1.46zm-332.2 1.35c1.59-.71 3.22-1.54 5.02-1.48 6.98-.13 13.97.06 20.95 0 .02.62.06 1.84.08 2.46-8.67-.3-17.55 1.15-26.05-.98zm179.8-.13c.69-2.52 3.47-.62 5.19-.73-1.65.83-3.77 3.27-5.19.73zm7.73-1.2c1.1-1.7 2.38 1.09 3.41 1.47-1.44 1.62-5.58.77-3.41-1.47zm4.79.41c1.94-.21 3.88-.31 5.83-.21-.66.55-1.99 1.65-2.65 2.21-1.1-.6-2.13-1.33-3.18-2zm7.6.15c1.23-.59 2.47-1.36 3.77-.39-.54 1.08-.78 2.28-1.27 3.39-.63-.75-1.88-2.25-2.5-3z"/><path d="M114.91 168.33c1.98-1.93 4.31-5.28 7.51-3.68 3.83 1.68 3.49 7.76-.55 8.88-2.87 1-4.81-1.78-6.57-3.51-12.19-.67-24.41.15-36.61-.1-.26 8.18-.25 16.38-.18 24.57-13.17-1.02-26.4-.28-39.6-.43-1.64 2.19-4.24 5.18-7.24 3.31-3.76-1.7-3.24-7.24.5-8.61 3.03-1.57 5.2 1.82 6.94 3.72 12.43.24 24.88-.1 37.32.4.05-8.15.5-16.28.5-24.42 12.66-.27 25.32-.07 37.98-.13m1.68.71c1.35 1.04 2.69 2.13 4.22 2.91 2.24-.63 4.1-3.84 1.3-5.08-2.15-1.75-3.87 1.16-5.52 2.17m-85.25 25.79c1.79 1.92 4.39.7 5.68-1.13-.93-1.52-1.96-2.98-3.16-4.31-1.19 1.63-4.1 3.14-2.52 5.44z"/><path d="M88.15 171.92c3.07.18 6.18.34 9.09 1.43-3.05.4-6.11.5-9.18.56.03-.5.07-1.49.09-1.99zm11.04 1.77c1.52-.71 3.06-1.39 4.61-2.06.31.46.94 1.37 1.25 1.82-1.96.09-3.91.17-5.86.24zm92.69.24c3.34-.47 6.71-.86 10.07-.39 4.7-.28 9.41-.49 14.11-.22 1.45-.07 2.59.89 3.75 1.62-.49.38-1.47 1.16-1.95 1.54-5.43.25-10.89-.71-16.31.05-3.24.57-6.5.11-9.7-.43.01-.54.03-1.62.03-2.17zm63.27 1.35c1.12-.94 2.28-1.83 3.43-2.74.38 1.31.76 2.62 1.14 3.94-1.48-.57-3.03-.87-4.57-1.2zm11.4-2.3c1.17.9 2.26 1.9 3.37 2.89-1.96.04-3.91.05-5.86.01.79-1 1.62-1.97 2.49-2.9zm11.98 7.21c1.88-3.56 5.09-7.33 9.48-7.22 5.4.95 8.98 7.43 6.44 12.45-2.06 4.97-9.31 5.37-12.96 2.02-1.45-2.2-1.92-4.87-2.96-7.25m3.59 2.71c1.13 1.98 3.18 4.13 5.69 3.76 1.93-.63 3.47-2.04 5.11-3.2-.89-2.2-1.8-4.39-2.76-6.55-.64 2.08-.85 4.41-2.31 6.12-2.94-.41-2.62-4-3.64-6.06-.79 1.92-2.22 3.77-2.09 5.93zm-140.36-5.33c6.76-.9 13.59-.23 20.39-.32 0 .63.01 1.89.02 2.52-5.41-.42-10.83-.14-16.24-.33-1.63.06-2.82-1.19-4.17-1.87zm172.99.01c1.2-.22 2.41-.46 3.62-.7l.76 3.48c-1.58-.71-3.35-1.29-4.38-2.78zm7.51-.33c.97-1.5 3.53.13 2.37 1.6-.99 1.49-3.55-.13-2.37-1.6zm10.12 3.76c1.47-1.43 2.77-3.09 4.53-4.18 1.98-.11 3.95.21 5.92.44.8 2.51 1.94 5.11 1.46 7.81-1.09 3.28-5.59 5.24-8.57 3.2-2.71-1.34-2.76-4.71-3.34-7.27m2.13 2.08c.91 2.2 3.97 4.71 6.13 2.56 2.46-1.17 1.35-3.85.82-5.85-1.12 1.57-2.17 3.18-3.23 4.79-.44-1.62-.88-3.23-1.32-4.84-.98.99-1.78 2.11-2.4 3.34zm-143.27-1.47c9.89-1.4 19.86.62 29.77-.37 4.72.07 9.88-1.06 14.19 1.4-8.86 2.27-18.12 1.26-27.16 1.09-4.69-.18-9.4 1.48-14.04.26-1.45-.13-2.37-.92-2.76-2.38zm197.22.29c5.71-1 11.59-.9 17.27.25-5.68 1.34-11.71 1.91-17.27-.25zm-247.18 1.58c10.81-2.33 21.96-.55 32.9-.48-4.67 2.79-10.4 1.3-15.52 2.46-.44-.22-1.32-.67-1.76-.89-5.2.77-10.69 1.09-15.62-1.09zm229.14-.92c.4.22 1.22.65 1.63.87 1.24.79 2.37 2.04 3.92 2.19 6.98.63 14-.04 20.98-.27 7.21.36 14.42.71 21.64.66.27 5.85-.56 11.76.24 17.57 4.75.4 9.54.07 14.31.25.07 6.89-.01 13.78.04 20.66 1.54 1.94 4.56 3.61 3.81 6.49-.31 2.63-3.25 3.48-5.07 4.88-1.75-1.73-4.16-3.26-4.47-5.92 1.21-2.78 4.54-4.59 4.36-7.89.01-5.52.29-11.07-.3-16.56-4.66-.73-9.41.03-14.06-.72-1.17-5.73-.52-11.61-.77-17.41-7.21-.23-14.42-.09-21.63-.01-6.05-.25-12.12-.55-18.17-.28-2.9-.1-4.47 2.82-6.91 3.89-1.98-.08-3.69-1.19-5.45-1.94.23-.94.47-1.87.71-2.8 1.32 1.29 2.67 2.55 4.05 3.8.86-1.08 1.9-2.02 2.67-3.17-.41-1.47-.97-2.89-1.53-4.29m59.94 45.75c-1.34 1.46-.61 4.71 1.69 4.54 1.8.41 2.85-1.48 3.5-2.82-1.13-2-3.13-3.74-5.19-1.72zm21.43-41.76c1.43-1.13 1.95-3.75 4.13-3.68 2.68-.33 3.6 2.62 5.27 4.1 1.19-.33 2.36-.72 3.52-1.16 1.2 1.17 2.38 2.36 3.56 3.55-.51 1.17-.96 2.36-1.34 3.58 1.11.96 2.39 1.74 3.52 2.7.45 1.33.63 2.75.93 4.13-1.5.78-3.03 1.51-4.46 2.42.37 1.39.86 2.75 1.32 4.12-1.23 1.17-2.46 2.34-3.71 3.48-1.16-.48-2.3-1-3.49-1.37-.92 1.16-1.66 2.45-2.45 3.69-1.62.03-3.22.05-4.83.04-.71-1.27-1.4-2.52-2.17-3.74-.97.32-2.92.96-3.9 1.27-1.2-1.19-2.39-2.4-3.56-3.62.65-1.14 1.32-2.26 2-3.39-1.43-.9-2.93-1.7-4.25-2.75-.21-1.52-.22-3.06-.27-4.59 1.36-.62 2.73-1.22 4.05-1.94-.29-1.4-.85-2.75-1.26-4.11.97-1.04 1.95-2.08 3.03-3.02 1.45-.03 2.89.37 4.36.29m3.37-1.38c-.35.9-.69 1.8-1.02 2.71-.98.49-1.96.99-2.93 1.48-1.36-.45-2.71-.91-4.1-1.22.2 1.47.29 2.95.56 4.41-.35.88-.72 1.75-1.07 2.63-1.02 1.04-2.23 1.83-3.35 2.73 1.11.91 2.31 1.73 3.45 2.61.43.87.86 1.73 1.29 2.6-.58 1.23-1.14 2.47-1.67 3.72 1.6-.12 3.21-.3 4.83-.43.76.27 1.54.55 2.32.82 1.11 1.41 2.24 2.8 3.43 4.15.58-1.49 1.17-2.97 1.75-4.45 2.39-.2 4.8-.17 7.2-.36-.38-1.2-.85-2.36-1.31-3.51.5-1.1 1.01-2.2 1.53-3.29.64-.1 1.91-.29 2.55-.38.02-.93.05-1.85.08-2.78-.65-.19-1.96-.58-2.62-.77-.58-1.3-1.17-2.61-1.74-3.9.57-.69 1.71-2.08 2.28-2.77-1.73-.62-3.55-.6-5.28.01-1.04-.41-2.06-.83-3.08-1.25-.18-.64-.55-1.91-.74-2.55-.59-.05-1.77-.16-2.36-.21zm-404.82 3.51c6.39-1.5 13.34-1.71 19.71.01-6.52.91-13.19.88-19.71-.01zm90.9.43c4.31-1.24 8.93-1.9 13.36-.94.18.49.52 1.46.69 1.95-4.66.81-9.65.94-14.05-1.01zm49.56 1.83c4.61-4.61 11.84-1.93 17.59-1.9.09.52.26 1.57.34 2.09-5.91 1.32-12.09 1.65-17.93-.19z"/><path d="M453.36 191.38c4.82-2.41 10.89 2.37 9.72 7.6-.51 4.85-6.82 7.54-10.72 4.64-4.44-2.77-3.79-10.18 1-12.24m.95 1.97c-2.65 1.25-4.26 4.92-1.91 7.24 1.86 3.29 7.05 2.53 8.3-.91 2.25-3.59-3.04-8.59-6.39-6.33zm-312.66 1.16c6-1.85 12.27-.93 18.43-1.08 2.7-.02 5.38.47 8 1.1-2.84 1.23-5.93 1.78-9.03 1.54-5.8-.51-11.88.83-17.4-1.56zm193.8-.86c1.05-.21 2.08-.04 3.07.51-.77.83-1.58 1.61-2.43 2.35-.69-1.12-3.62-2.85-.64-2.86zm4.61.41c1.63-.18 3.27-.34 4.91-.47-.3.75-.91 2.24-1.21 2.99-1.25-.82-2.48-1.66-3.7-2.52zm-18.81-.02c1.04-1.24 3.11.55 2.05 1.77s-3.16-.55-2.05-1.77zm7.07.09c.98-1.51 3.49.18 2.35 1.64-.99 1.52-3.5-.19-2.35-1.64zm-137.4 4.69c1.94-2.97 5.78-3.28 9.01-3.04 8.25.94 16.56.39 24.82 0 .1.82.28 2.46.38 3.27-11.39.46-22.85.85-34.21-.23zm71.28-.56c.86-.7 2.57-2.12 3.42-2.83 1.13 1.27 2.22 2.57 3.27 3.92-2.25-.23-4.46-.72-6.69-1.09zm9.69-.6c.84-.46 2.53-1.39 3.37-1.86.8 1.23 1.56 2.46 2.33 3.72-1.99-.31-4-.71-5.7-1.86zm9.11 1.5c1.15-1.09 2.27-2.25 3.6-3.12.93.69 1.45 1.62 1.57 2.77-1.72.19-3.44.31-5.17.35zm9.49-3.52c2.4.35 4.53 1.42 5.51 3.78-1.46-.13-2.89-.35-4.31-.65-.3-.79-.9-2.35-1.2-3.13zm122.84 13.9c-.45-4.72-.77-9.56.51-14.19.78 4.1 1.11 8.27 1.72 12.41 3.48.3 6.97.44 10.42 1.03-4.11 1.15-8.43.92-12.65.75zM100.3 197.19c2.73 1.24 4.71 3.5 6.51 5.82 2.22-2.03 4.49-4.02 7.04-5.64-1.81 2.92-4.33 5.27-6.62 7.8-2.94-2.05-5.63-4.55-6.93-7.98zm-96.51 4.8c4.73-.74 9.83-1.38 14.38.51-4.75.84-9.77 1.16-14.38-.51zm137.17 8.44c3.08-1.81 6.68-1.14 10.06-1.18 4.34.15 8.94-1.06 12.98 1.05-7.44 1.97-15.7 3-23.04.13zm173.38.82c1.61-1.73 3.69-2.31 5.9-1.25-1.89.74-3.87 1.18-5.9 1.25zm8.06-1.94c1.15-.25 2.23-.02 3.23.7-.42.54-1.28 1.61-1.7 2.14-.88-.46-4.08-2.1-1.53-2.84zm10.32 7.96c-2.12-4.54 2.87-7.44 6.39-8.81 2.51 2.2 6.73 4.33 5.39 8.4-1.22 5.67-10.09 5.91-11.78.41m2.33-4.56c-.41 2.76.99 6.88 4.51 5.85 3.3-1.07 2.43-4.62 1.63-7.14-.86 1.9-1.64 3.85-2.61 5.72-.51-1.65-1.12-3.26-1.55-4.93-.5.13-1.48.38-1.98.5zm50.46.91c.44-1.36.9-2.71 1.33-4.07.18 1.37.39 2.74.63 4.1 1.48.45 2.96.9 4.43 1.42-1.45.52-2.87 1.09-4.26 1.73-.41 1.35-.86 2.68-1.27 4.02-.28-1.46-.56-2.91-.86-4.36-1.48-.3-2.94-.62-4.4-.95 1.45-.65 2.93-1.25 4.4-1.89zm-337.14-2.4c1.15-.94 1.81-.7 1.98.72-1.14.94-1.81.7-1.98-.72zm6.26 0c1.17-.92 1.83-.66 1.97.75-1.17.91-1.83.66-1.97-.75zm6.74-.02c1.17-.93 1.82-.68 1.97.74-1.16.93-1.82.68-1.97-.74zm80.25 4.91c2.71-1.88 6.19-1.13 9.28-1.3 7.74.43 15.5-.74 23.22.21-3.08 3.39-8.06 1.69-12.07 2.07-6.79-.45-13.83 1-20.43-.98zm144.77 1.24c5.48-.6 10.59 5.17 8.88 10.58-1.14 7.14-12.38 8.55-15.31 1.97-3.03-5.02.75-11.87 6.43-12.55m-3.87 10.22c1.05 1.87 3.06 3.7 5.37 3.36 1.95-.45 3.63-1.99 4.31-3.87.49-2.36-1.18-4.35-2.13-6.34-.79 2.82-1.55 5.68-3.04 8.23-1.1-2.63-1.8-5.4-2.46-8.16-1.15 2.04-3.27 4.27-2.05 6.78zm-90.81-9.66c6.76-.1 13.53 0 20.3-.11 2.71-.04 5.5.02 8.02 1.15-1.61 2.42-4.58 1.9-7.07 1.98-7.05-.05-14.09-.08-21.13-.01-.03-.75-.09-2.26-.12-3.01zm64.55.02c2.03-.64 3.65.38 4.89 1.91-1.91.7-3.88 1.18-5.85 1.6.28-1.18.55-2.37.96-3.51zm8.05-.46c2.07.51 4.1 1.24 5.91 2.42-2.01.51-4.03.94-6.06 1.33.04-.94.11-2.82.15-3.75zM22.58 250.46c-.11-10.3-.15-20.6.04-30.89 13.51-.05 27.02-.11 40.52.05.02 10.27.03 20.53-.01 30.8-13.52.13-27.03.05-40.55.04m1.61-29.12c-.78 9.09-.31 18.28-.2 27.41 12.39.27 24.8.22 37.2.02.23-9.22.3-18.44.06-27.66-12.35.05-24.74-.45-37.06.23zm116.83.52c4.55-2.4 10.63-2.55 15.11.09-5.01.67-10.12.81-15.11-.09z"/><path d="M41.62 224.13c1.14-.94 1.8-.71 1.97.72-1.14.93-1.8.69-1.97-.72zm426.77.98c5.13-.23 10.59-1.12 15.51.78-4.52 1.37-9.34 1.04-13.99.81-.79-.03-4.55-1.9-1.52-1.59zm-326.3 2.88c.18-.56.55-1.67.74-2.23 8.38.17 16.77-.26 25.15.25-1.05 1.16-2.21 2.38-3.93 2.13-7.32.11-14.65.11-21.96-.15zm49.66.19c-1.32-3.69 3.1-2.3 5.25-2.62 12.63.28 25.29-.39 37.91.39-1.84 3.31-5.79 2.4-8.91 2.53-11.41-.29-22.85.35-34.25-.3zm128.53-2.7c1.35.76 5.24-.23 4.37 2.41-2.21 1.03-3.8-.15-4.37-2.41zm8.03.67c1-1.45 3.55.2 2.37 1.65-1.02 1.45-3.56-.2-2.37-1.65zm6.48.47c1.01-2.16 4.07-.61 3.02 1.59-1.17-.33-5.41.28-3.02-1.59zm5.22-.86c1.73.11 3.45.34 5.17.68-.75.77-1.45 1.57-2.12 2.4-.99-1.06-2.01-2.08-3.05-3.08zm119.84 5.77c4.78-2.14 10.77-2.07 15.56-.01-5.15.75-10.41.79-15.56.01zm-267.89 4.35c-.94-1.49-.61-2.47.99-2.95 5.23-.44 10.5-.03 15.74-.16-.09 1.01-.22 2.01-.39 3.01-5.4.63-10.92.6-16.34.1zm-112.3 3.31c2.58 1.59 4.86 3.6 7.16 5.56 2.18-2.04 4.37-4.07 6.85-5.74-1.49 3.21-3.82 6.05-6.8 7.98-3.11-1.82-5.37-4.76-7.21-7.8zm182.95 3.77c.59-3.04 4.09-2.06 6.26-2.16-.81 3.01-3.83 3.54-6.26 2.16zm8.74-1.46c1.92-.45 3.89-1 5.88-.62.54 2.08-1.24 3.11-3.06 2.86-.96-.73-1.91-1.47-2.82-2.24zm8.67.53c2.38-1.38 5.08-1.61 7.62-.46-1.2.7-2.16 1.91-3.57 2.2-1.42-.4-2.73-1.12-4.05-1.74zm9.49-.14c2.05-.98 4.28-1.38 6.44-.56-.39.71-1.19 2.14-1.58 2.86-1.65-.72-3.27-1.49-4.86-2.3zm-96.45 1.7c-1.94.18-2.38-3.07-.02-2.8 5.93-.7 11.93-.09 17.89-.28 5.37.15 11-.84 16.05 1.54-3.6 2.26-7.93 1.59-11.94 1.66-7.33-.17-14.66.2-21.98-.12zM34 245.73c3.48-1.46 7.46-1.52 10.9.08-3.59.74-7.32.75-10.9-.08zm14.25-1.49c1.87-.75 3.2 2.31.9 2.58-1.87.72-3.19-2.3-.9-2.58zm71.46 1.43c4.35-2.21 9.79-1.93 14.25-.11-4.7.85-9.53.84-14.25.11zm218.93-.15c2.86-1.51 6.14-1.33 9.28-1.34 3.13.08 6.48-.29 9.3 1.37-6.15.82-12.44.84-18.58-.03zm22.32.19c2.8-2.26 6.53-1.38 9.77-.88-3.05 1.51-6.5 1.41-9.77.88zm51.8-1.58c13.67-.32 27.36-.4 41.03.06.08 17.74.04 35.48.01 53.22-13.65.54-27.32.16-40.98.21-.32-17.82-.18-35.66-.06-53.49m1.3 1.61c-.04 3.67-.03 7.34.07 11.01 12.58-.06 25.18.48 37.75.01-.03-3.73.46-7.56-.47-11.22-4.14-.44-8.31.1-12.47-.01-8.29.17-16.6-.47-24.88.21m.04 12.92c-.08 3.5-.28 7.01.07 10.5 4.1 1.39 8.6.45 12.86.7 8.38-.2 16.79.49 25.15-.35-.04-3.6-.08-7.21-.16-10.81-12.63-.39-25.28-.1-37.92-.04m.03 13.08c-.1 3.61-.12 7.23-.14 10.84 8.65.73 17.34.13 26.01.36 3.81-.05 7.69.36 11.46-.38 1.36-3.23.69-7.13.29-10.56-12.49-1.01-25.09-.07-37.62-.26m-.04 12.95c-.06 3.64-.33 7.32.27 10.93 12.46 1.02 25.01-.16 37.5.2.06-3.62.25-7.26-.21-10.86-12.46-1.03-25.05-.08-37.56-.27z"/><path d="M79.44 246.26c2.71 1.49 5.02 3.57 7.34 5.59 2.15-2.09 4.36-4.16 6.99-5.65-1.68 3.21-4.37 5.68-6.96 8.15-2.72-2.44-5.39-4.99-7.37-8.09zm338.76.98c2.98.18 6.04.18 8.86 1.31-3.26.56-6.56.72-9.86.61l1-1.92zm-2.13 4.62c2.64-.76 5.44-.98 7.87.52-2.64.34-5.32.25-7.87-.52zm23.84 1.39c1.77 0 3.56 0 5.34-.03l-.28 1.68c-.49-.35-1.49-1.05-1.99-1.41-.84.44-1.69.88-2.52 1.32-.14-.39-.42-1.17-.55-1.56zm7.11-.3c1.62-.53 2.17.01 1.67 1.64-1.64.52-2.19-.02-1.67-1.64zm-65.03 2.95c1.62-.57 2.2-.05 1.74 1.59-1.62.57-2.2.04-1.74-1.59zm6.16.03c.92-1.3 3.26.2 2.14 1.52-.94 1.3-3.26-.2-2.14-1.52zm6.5.01c.88-1.36 3.25.08 2.18 1.44-.89 1.35-3.24-.1-2.18-1.44zm22.1 5.84c3.25-1.46 6.94-1.42 10.24-.17-3.39.56-6.84.71-10.24.17zm-222.89-.84c.89-.04 2.67-.11 3.56-.15 2.11 1.93 3.54 4.43 2.65 7.37-1.08.96-2.22 1.89-3.14 3.01-1.08 8.81.74 17.89-.81 26.62-6.26.6-12.57.01-18.84.37-.22 7.97 0 15.94-.14 23.92-4.82.02-9.64 0-14.46.07-1.45 1.5-2.74 3.32-4.72 4.15-4.51.52-7.54-6.15-3.36-8.69 3.14-2.57 6.38.49 8.12 3.1 4.01.02 8.04.38 12.03-.14.21-.2.64-.58.86-.78.57-7.68-.06-15.41.28-23.11 6.27-.44 12.56-.1 18.84-.39.24-8.28 0-16.56.08-24.84-1.5-1.81-3.94-3.61-3.46-6.27.53-1.57 1.57-2.89 2.51-4.24m.57 2.61c-1.56.36-1.42 1.98-1.3 3.24.84 2.67 5.84 1.87 5.46-.95.49-2.02-2.66-3.68-4.16-2.29m-39.05 55.83c-1.6 1.18-1.26 4.15.9 4.42 2.47 1.1 5.49-2.24 3-4.14-.84-1.79-2.6-1.11-3.9-.28zm97.3-55.7c.83-2.89 4.22-2.64 6.57-3.17.82 1.74 2.25 3.44 2.18 5.45-.78 1.95-2.36 3.42-3.34 5.25-.63 2.64-.24 5.4-.25 8.09 19.46.11 38.93-.05 58.39.26 0 7.15-.14 14.29-.05 21.43-.65 3.96 6.13 6.27 3.1 10.15-1.58 3.46-7.96 2.83-8.44-1.11-.98-3.71 3.84-5.5 3.65-9.05.21-6.63.03-13.26-.04-19.89-19.5-.89-39.05.26-58.55-.63-.02-3.25-.03-6.51-.11-9.76-1.87-1.78-4.41-4.16-3.11-7.02m.65 1.58c1.23 1.28 2.5 2.53 3.8 3.76 1.06-1.15 1.93-2.45 2.78-3.76-.85-1.23-1.82-2.38-2.73-3.57-1.3 1.18-2.58 2.36-3.85 3.57m59.74 41.9c-1.96 1.91 1.07 3.89 1.93 5.52 1.04-1.42 3.51-2.49 2.79-4.59-.06-2.25-3.62-2.59-4.72-.93zM106.7 278.99c.35-5.42-1.07-11.29 1.67-16.27 9.23.13 18.47-.21 27.69.11 2.6-.07 3.79 2.92 3.72 5.12.11 5.3.24 10.63-.11 15.92-.24 2.3-2.33 3.86-4.61 3.51-8.34-.1-16.71.29-25.04-.2-4.23-.28-3.15-5.3-3.32-8.19m1.02-12.44c4.85 4.19 9.66 8.63 15.25 11.81 4.02-1.3 6.85-4.69 10.26-7.04 1.88-1.72 5.11-3.14 4.68-6.18-5.9-1.03-11.94-.29-17.9-.54-4.13.21-8.85-1.01-12.29 1.95m1.07 3.65c-.11 3.22-.1 6.44 0 9.66 2.17-1.51 4.26-3.14 6.3-4.83-2.06-1.66-4.15-3.29-6.3-4.83m22.5 5.25c2.11 1.66 4.26 3.29 6.46 4.83.17-3.37.2-6.75.06-10.11-2.45 1.39-4.67 3.15-6.52 5.28m-22.75 7.66c.18.62.55 1.85.74 2.47 6.55.54 13.15-.1 19.72.14 3.36-.16 7.43.88 9.77-2.22-2.79-2.55-5.79-4.85-8.8-7.14-2.25 1.39-4.35 3.21-6.98 3.84-2.27-.97-4.25-2.49-6.31-3.83-2.9 2-5.94 3.94-8.14 6.74zM416.65 264c2.48-.17 5.14-.21 7.21 1.42-2.55.26-5.2.47-7.21-1.42zm-399.07 3.67c5.7-1.27 11.66-1.11 17.41-.27-5.48 2.2-11.79 1.7-17.41.27zM444 266.14c3.34.21-1.63 2.92 0 0zM63.57 276.18c.54-2.35.76-5.6 3.58-6.37 3.66-1.47 7.15 3.98 4.54 6.9-1.66 2.29-4.76.92-7.07.94-3.88 2.44-7.67 4.99-11.44 7.6.14 2.13.29 4.27.42 6.41 3.55 1.23 7.15 2.28 10.75 3.32 1.58-1.34 3.08-2.81 4.92-3.77 4.49-1.63 9.75 3.16 8.6 7.78-1.04 3.71-5.62 6.69-9.29 4.63-2.9-1.05-3.54-4.28-4.45-6.84-2.95-1.01-5.9-2.04-8.87-2.96-3.51-1.57-6.66 2.75-10.19 1.26-1.59-.69-2.84-1.94-4.18-2.99 0-2.07 0-4.14.01-6.2 1.46-1.19 2.84-2.56 4.58-3.35 2.29-.5 4.47.72 6.58 1.4 3.85-2.56 7.73-5.09 11.51-7.76m3.62-4.12c-1.78.78-1.24 2.95-.23 4.16 1.42.99 4.15-.36 3.74-2.22.44-1.64-2.51-3.23-3.51-1.94m-24.87 16.8c.13 3.34 3.69 4.56 6.34 5.45 1.64-2.31 4.57-5.27 2.12-8.08-2.38-3.62-8.3-1.48-8.46 2.63m24.33 7.13c-.92 2.84 1.25 6.29 4.34 6.24 3.05.42 5.78-3.11 4.77-5.98-.67-2.19-3.12-2.93-4.82-4.12-1.52 1.17-3.16 2.27-4.29 3.86zm278.24-25.19c5.36-.54 10.76-.3 16.14-.34 1.46.05 3.14-.05 4.3 1.03.55 1.41.8 2.92 1.2 4.38 4.22-.1 8.48-.03 12.64.85.83 5.74.4 11.55.59 17.33-.09 2.27.26 5.31-2.01 6.69-4.2.77-8.51.28-12.75.37-6.7-.14-13.47.51-20.1-.69-.3-9.87-.33-19.75-.01-29.62m1.28 1.48c.07 8.84-.56 17.74.26 26.54 2.33 1.11 5 .74 7.5.84 7.05-.17 14.1.13 21.14-.09.89-.17 2.71-.2 2.58-1.53.47-6.63.13-13.3.07-19.95-6.26-.73-12.63.2-18.83-1.04 1.76-.57 3.53-1.08 5.32-1.55-.14-1.11-.28-2.21-.42-3.31-5.88-.06-11.75-.03-17.62.09zm-182.64-2.39c.32 1.19.65 2.37.99 3.57 1.54.77 3.08 1.57 4.6 2.41-1.6.22-3.2.43-4.79.63-.05 1.18-.09 2.36-.13 3.55l-1.15.1c-.1-1.22-.2-2.44-.31-3.65-1.53-.24-3.06-.49-4.59-.75 1.47-.84 3.01-1.56 4.53-2.32.21-.89.63-2.66.85-3.54zm55.36 2.77c4.54-1.75 9.73-1.65 14.27.03-4.72.78-9.56.79-14.27-.03zm-208.19.33c4.7-.7 9.46-.43 14.19-.58.01.39.04 1.17.05 1.57-4.75.07-9.64.49-14.24-.99zm405.97 1.95c3.2-1.64 6.88-1.36 10.23-.37-3.37.65-6.82.85-10.23.37z"/><path d="M270.21 275.92c6.52-1.12 13.26-.98 19.81-.17-6.38 1.85-13.35 1.49-19.81.17zm22.92-.73c.99-1.38 3.66.07 2.45 1.58-.98 1.36-3.67-.1-2.45-1.58zm-101.39.64c1.53 3.47 1.03 7.29.25 10.88-1.13-3.53-1-7.3-.25-10.88zm226.11.65c2.04.21 4.08.44 6.13.76-1.91 1.01-4 1.55-6.08 2.05-.02-.7-.04-2.1-.05-2.81zm-68.09 8.23c6.05-1.34 12.48-1.29 18.54-.01-6.12.96-12.42.96-18.54.01zm66.85 2.61c3.42-.74 6.97-.73 10.4-.02-3.32 1.59-7.06 1.39-10.4.02zm-186.87 10.91c7.34-15.33 32.74-15.21 40.36-.11-3.9-2.52-7-6.25-11.39-7.98-5.38-2.06-11.47-2.12-16.94-.32-4.73 1.64-8.03 5.61-12.03 8.41zm81.8-.05c-1.66-3.94-1.78-8.54-.05-12.48.63 4.13.63 8.34.05 12.48zm39.51-8.66c3.88.08 7.89-.16 11.55 1.37-3.84.82-7.78.75-11.68.79.03-.54.1-1.62.13-2.16zm65.92 1.71c1.47-1.37 3.48-1.62 5.33-2.1.13.71.37 2.14.49 2.86-1.95-.2-3.9-.38-5.82-.76z"/><path d="M235.17 303.27c3.92-12.73 25.32-12.56 29.57-.09-4.37-3.91-9.19-8.35-15.55-7.73-5.86-.11-10.12 4.07-14.02 7.82zm-52.18-1.97c3.65-.58 7.37-.57 11.02-.01-3.56 1.19-7.45 1.18-11.02.01z"/><path d="M247.76 301.66c5.05-1.24 10.05 1.87 12.52 6.18-3.44-1.45-6.27-4.75-10.23-4.69-4.18-.33-7.02 3.25-10.49 4.94 1.78-3.09 4.48-5.95 8.2-6.43zm-76.83 10.2c-.05-3.62-.23-7.35 1.17-10.76.56 3.52.5 7.1.59 10.66-.44.03-1.32.07-1.76.1zM115.17 303c1.64-.52 2.21.02 1.68 1.64-1.64.51-2.2-.03-1.68-1.64zm6.01.1c1-1.46 3.57.15 2.34 1.62-1 1.48-3.55-.17-2.34-1.62zm6.89-.04c1.62-.59 2.2-.06 1.74 1.58-1.62.58-2.2.06-1.74-1.58zm150.71.28c2.75 1.27 5 3.3 7.2 5.34 2.15-1.96 4.34-3.92 6.86-5.42-1.56 3.28-4.31 5.7-7.08 7.93-2.54-2.42-5.03-4.92-6.98-7.85zm-136.01 19.41c.16-6.03-.8-12.23.92-18.11 1.06 7.31.32 14.73.54 22.09 1.42 1.62 2.82 3.27 4.2 4.94-.75 2.78-1.23 5.66-2.31 8.35-12.74.55-25.53.06-38.3.22-.66-2.93-1.99-5.91-1.6-8.94 1.68-2.94 4.07-5.4 6.38-7.84 1.81-2.14 4.9-1.31 7.35-1.52 7.61.27 15.28-.53 22.82.81m-27.65.54c-2.31 2.3-4.5 4.72-6.56 7.25 12.24.6 24.51.31 36.76.15-2.4-2.68-4.12-7.35-8.29-7.3-7.3-.13-14.61.1-21.91-.1m-7.54 9.53c.59 1.89 1.12 3.84 2.03 5.62 11.56.1 23.18.41 34.73-.13 1-1.7 1.51-3.62 2.12-5.48-8.7-.14-17.39.09-26.09-.14 1.02 1.15 2.06 2.28 3.08 3.43-4.17.35-8.49.65-12.51-.78 3.1-.58 6.25-.65 9.4-.69-.13-.53-.38-1.59-.51-2.13-4.08.34-8.17.26-12.25.3z"/><path d="M248.15 307.93c2.35-.8 5.12.54 5.34 3.16.5 3.63-5.21 5.41-6.68 1.96-1.33-1.79-.01-3.84 1.34-5.12m-.03 2.13c-.02 1.93.82 3.55 3.05 2.86.77-2.36-.62-4.25-3.05-2.86zm198.45-1.67c4.74-.81 9.61-.81 14.36 0-4.65 1.41-9.71 1.34-14.36 0zm-387.06 6.3c6.17-1.34 12.68-1.24 18.85-.01-6.23.9-12.63 1.05-18.85.01zm22.12-.41c3.2-.45 6.45-.46 9.66.02-3.09 1.37-6.59 1.35-9.66-.02zm296.55 7.65c.45-1.46.92-2.91 1.42-4.35.23 1.46.47 2.91.71 4.37 1.44.38 2.89.76 4.33 1.17-2.71.6-4.86 1.99-4.97 4.99-1.03-2.36-2.76-4.2-5.24-5.07 1.25-.37 2.49-.75 3.75-1.11zm-73.96-1.07c7.83-.22 15.66-.19 23.49-.02 0 9.7.14 19.42-.08 29.13-7.79.29-15.59.26-23.37-.01-.15-9.7-.13-19.4-.04-29.1m1.98 1.3c.01 8.78-.45 17.6.32 26.37 6.38-.29 12.85.59 19.17-.53.43-8.51.49-17.11-.03-25.62-6.46-.67-12.98-.2-19.46-.22z"/><path d="M315.28 325.13c3.02-1.5.1 3.33 0 0zm102.84 2.25c2.93 1.97 5.67 4.37 7.52 7.42-2.01 2.78-4.68 5-7.54 6.86 1.39-2.49 3.36-4.58 4.96-6.93-1.5-2.55-3.51-4.76-4.94-7.35z"/><path d="M425.14 327.4c2.9 1.97 5.75 4.25 7.57 7.32-1.91 2.89-4.65 5.12-7.56 6.94 1.37-2.69 3.38-4.95 5.31-7.25-2.06-2.11-4.08-4.31-5.32-7.01zm-193.21 2.31c6.31-.55 12.74-.82 19 .3-4.79 1.66-9.95 1.26-14.94 1.22-1.55.13-2.73-.95-4.06-1.52zm23.52-.52c2.86.11 5.75.27 8.56.89-2.64.98-5.45 1.21-8.24 1.38-.08-.57-.24-1.71-.32-2.27zm-73.51 3.44c12.03-.65 24.11-.44 36.15-.13 0 7.19.03 14.39-.03 21.58-2.35.18-4.72.38-7.03.86.26 3.06 1.03 6.04 1.45 9.07-4.3-2.69-7.48-6.88-11.9-9.36-6.14-.6-12.35.09-18.5-.43-.3-7.2-.14-14.4-.14-21.59m2.46 1.84c-.51 5.91-.07 11.85-.29 17.78 5.58.08 11.17.11 16.75-.02 3.03 2.37 5.9 4.92 8.93 7.3-.36-2.38-.73-4.75-1.07-7.13 2.44-.08 4.89-.12 7.33-.21-.23-5.9.37-11.84-.42-17.7-5.2-.62-10.45-.18-15.67-.28-5.19.12-10.4-.32-15.56.26z"/><path d="M186.09 338.62c4.44-1.81 9.3-1.01 13.95-1.12 4.64.12 9.47-.62 13.91 1.08-4.59.83-9.27.57-13.9.6-4.66-.03-9.35.24-13.96-.56zm-.02 4.18c6.83-.81 13.85-1.03 20.65.18-4.74 1.6-9.8 1.1-14.71 1.1-2.09.06-4.02-.55-5.94-1.28zm86.13 1.08c.88-1.26 3.34.07 2.24 1.44-.9 1.25-3.33-.09-2.24-1.44zm6.37.04c.85-1.34 3.28 0 2.23 1.39-.85 1.34-3.26-.01-2.23-1.39zm6.76.06c.79-1.16 2.95.06 2 1.29-.79 1.15-2.93-.08-2-1.29zm26.51 1.61c2.51-1.69 5.69-1.85 8.17.02-2.72.27-5.46.29-8.17-.02zm-125.76 2.83c3.59-2.2 7.94-1.34 11.92-1.5 3.82.2 8.07-.78 11.38 1.63-7.73.69-15.59.85-23.3-.13zm-31.22 3.13c5.6-1.33 11.58-1.36 17.19-.04-5.68.87-11.5.89-17.19.04zm204.78 2.41c4.48-3.15 10.32-1.19 15.41-1.73.25.5.74 1.5.99 2-5.47.23-10.96.36-16.4-.27zm-211.74 2.45c5.25-.78 10.63-.77 15.86.22-5.07 1.36-11 2.19-15.86-.22zm204.78 2c5.18-.76 10.46-.72 15.64.01-3.38 2.08-7.51 1.53-11.29 1.43-1.6.05-2.98-.76-4.35-1.44zM244 360.79c4.32-1.58 9.05-1.36 13.54-.81l-.28 1.1c-4.37.79-8.92.58-13.26-.29z"/></g></svg>